<?xml version="1.0" standalone="no"?>
<!DOCTYPE svg PUBLIC "-//W3C//DTD SVG 20010904//EN"
 "http://www.w3.org/TR/2001/REC-SVG-20010904/DTD/svg10.dtd">
<svg version="1.0" xmlns="http://www.w3.org/2000/svg"
 width="512.000000pt" height="512.000000pt" viewBox="0 0 512.000000 512.000000"
 preserveAspectRatio="xMidYMid meet">
<metadata>
Created by potrace 1.14, written by Peter Selinger 2001-2017
</metadata>
<g transform="translate(0.000000,512.000000) scale(0.100000,-0.100000)"
fill="#000000" stroke="none">
<path d="M424 4439 c-18 -3 -45 -16 -61 -27 -17 -12 -33 -19 -37 -15 -3 3 -6
-1 -6 -10 0 -9 -4 -17 -10 -17 -5 0 -10 -7 -10 -15 0 -8 -4 -15 -10 -15 -5 0
-12 -17 -16 -37 -4 -21 -10 -42 -14 -48 -9 -13 -6 -288 4 -303 4 -7 2 -12 -6
-12 -8 0 -9 -3 -3 -8 6 -4 11 -45 12 -92 3 -189 8 -250 18 -250 6 0 7 -3 0 -8
-13 -9 -15 -82 -2 -82 5 0 4 -7 -3 -15 -7 -8 -9 -15 -4 -15 13 0 12 -80 -1
-80 -5 0 -3 -5 5 -10 8 -5 12 -10 8 -11 -5 -1 -11 -2 -15 -3 -25 -4 -82 -39
-105 -63 -43 -45 -58 -92 -53 -165 5 -58 11 -103 15 -103 1 0 3 -13 4 -30 7
-82 22 -200 26 -200 3 0 8 -66 10 -120 2 -27 7 -58 12 -67 6 -12 5 -18 -2 -18
-6 0 -9 -4 -5 -10 5 -9 13 -60 20 -130 1 -19 4 -35 5 -35 2 0 9 -81 13 -150 2
-28 6 -55 8 -60 3 -6 5 -33 5 -62 -1 -28 3 -49 7 -46 4 2 6 -11 4 -31 -2 -19
-2 -38 2 -41 7 -7 10 -40 13 -133 1 -39 5 -72 8 -72 3 0 6 -33 7 -73 4 -152 6
-178 15 -183 5 -3 5 -11 0 -17 -7 -11 -9 -45 -2 -64 2 -5 4 -21 5 -38 3 -41
14 -184 22 -280 3 -44 6 -97 6 -117 1 -21 5 -38 10 -38 5 0 4 -6 -2 -13 -6 -8
-9 -16 -6 -19 3 -2 7 -40 11 -84 3 -43 7 -88 9 -99 11 -70 20 -102 32 -121 7
-11 11 -24 8 -27 -3 -4 -2 -5 1 -3 7 5 62 -47 58 -55 -2 -4 8 -7 21 -8 56 -4
65 -6 65 -11 0 -3 48 -6 108 -7 73 0 106 -4 105 -12 -2 -6 2 -11 7 -11 6 0 10
6 10 13 0 7 15 12 39 12 22 1 37 -3 35 -7 -3 -4 0 -8 5 -8 6 0 11 4 11 8 0 4
11 8 25 8 14 0 25 -4 25 -8 0 -4 5 -8 11 -8 5 0 8 4 5 8 -3 5 1 9 9 9 12 0 12
-3 2 -16 -10 -12 -9 -14 5 -8 16 6 43 -15 32 -26 -3 -3 4 -8 16 -12 17 -5 19
-9 9 -21 -7 -8 -19 -12 -28 -9 -13 5 -13 4 -4 -6 10 -10 15 -9 28 1 15 12 21
4 16 -23 -1 -4 7 -3 18 2 15 8 20 7 25 -5 3 -8 11 -12 17 -8 8 5 9 3 4 -5 -5
-9 -10 -10 -18 -2 -6 6 -16 11 -21 11 -6 0 0 -9 14 -20 16 -12 29 -15 36 -9 7
6 16 3 25 -8 8 -9 9 -14 2 -10 -6 4 -14 3 -17 -2 -4 -5 5 -8 19 -6 18 1 22 -1
16 -9 -7 -8 0 -11 22 -10 40 0 58 -6 51 -17 -3 -5 2 -9 11 -9 10 0 13 5 9 13
-5 8 -2 8 9 -2 18 -15 23 -26 7 -16 -5 3 -10 1 -10 -4 0 -6 10 -10 23 -8 14 1
21 -3 19 -11 -1 -8 2 -11 8 -7 6 3 8 10 5 15 -3 5 3 7 15 5 11 -2 22 0 25 6 4
5 11 9 18 9 6 0 2 -6 -9 -14 -10 -8 -16 -18 -12 -22 4 -4 15 -1 25 7 15 12 16
12 10 -3 -4 -12 -2 -15 8 -11 8 3 12 10 8 17 -3 6 -3 8 2 4 4 -4 15 -2 23 5
13 10 14 9 4 -9 -11 -21 -9 -21 38 -18 27 2 52 -1 55 -6 9 -14 35 0 35 18 0
13 3 12 16 -4 8 -10 13 -14 9 -7 -9 18 27 33 49 21 15 -9 18 -8 14 4 -4 9 1
14 15 15 15 2 17 -1 8 -10 -6 -6 -11 -15 -11 -20 0 -10 22 11 39 38 8 13 11
14 7 3 -2 -9 1 -19 9 -21 15 -6 25 1 25 17 0 6 -5 4 -11 -4 -9 -13 -10 -13 -6
0 2 8 10 14 16 12 6 -1 14 5 18 14 5 14 8 13 20 -7 14 -24 14 -24 10 -2 -4 19
-1 23 20 23 17 0 22 4 17 13 -6 9 -4 9 8 -1 13 -10 18 -10 24 -1 4 8 3 9 -4 5
-7 -4 -12 -2 -12 3 0 17 18 13 30 -6 11 -17 11 -17 6 -1 -7 23 11 33 29 18 11
-9 15 -9 15 -1 0 6 -4 11 -8 11 -5 0 -9 7 -9 15 0 11 4 12 14 3 11 -9 12 -7 6
8 -6 17 -5 18 12 4 15 -12 17 -12 10 -1 -6 11 -4 13 9 8 11 -5 15 -3 10 5 -5
8 -2 9 10 5 13 -5 15 -3 7 12 -7 13 -6 18 5 19 7 1 21 3 29 4 10 1 13 8 9 20
-4 13 -1 16 10 12 9 -3 13 -11 9 -17 -4 -6 8 -1 25 12 18 12 32 26 32 29 0 4
20 7 45 7 25 0 45 5 45 10 0 6 3 6 8 0 8 -12 27 -13 38 -3 4 5 12 8 18 8 6 0
5 -4 -3 -9 -9 -6 1 -9 28 -9 29 -1 39 3 34 11 -5 9 -3 9 8 0 20 -16 30 -17 41
-1 5 8 6 0 3 -22 -6 -32 -5 -34 8 -15 8 10 12 26 9 35 -5 12 -3 13 9 4 17 -14
69 -15 69 -2 0 6 7 5 15 -2 12 -10 15 -10 15 1 0 10 3 10 8 3 4 -6 21 -10 37
-9 24 2 31 -2 32 -16 1 -10 -3 -18 -9 -16 -6 1 -13 -5 -15 -13 -4 -12 -3 -12
5 -2 5 8 13 14 18 15 5 1 9 8 9 16 0 18 21 26 22 9 0 -7 4 -21 8 -31 6 -13 3
-16 -9 -11 -9 3 -16 2 -16 -3 0 -5 11 -9 24 -9 23 0 24 1 10 27 -14 28 -5 47
16 34 6 -3 16 -3 23 2 19 12 45 14 52 3 3 -5 12 -7 20 -4 15 6 41 -33 36 -56
-1 -8 10 4 25 27 16 25 31 38 35 32 5 -8 12 -8 27 0 25 13 32 14 32 3 0 -8 -7
-10 -50 -14 -11 -1 -16 -6 -11 -11 5 -5 17 -4 28 2 14 7 23 7 32 -2 10 -9 12
-9 9 3 -2 10 5 15 19 15 11 0 25 3 29 7 4 4 14 3 21 -4 9 -7 17 -8 21 -2 8 11
42 15 42 5 0 -4 9 -7 20 -8 13 -1 18 2 13 10 -5 9 -3 9 8 1 21 -16 58 -24 65
-13 3 6 11 8 17 6 7 -2 20 0 31 5 12 7 16 7 12 0 -4 -6 2 -10 14 -9 11 1 20 5
20 10 0 5 7 4 15 -3 12 -10 15 -10 15 1 0 9 3 10 8 4 11 -16 46 -19 36 -3 -6
10 -5 11 7 1 12 -10 18 -10 29 0 10 9 11 9 6 -1 -4 -6 -3 -12 3 -12 5 0 11 3
14 8 2 4 3 2 1 -4 -3 -13 15 -34 30 -34 5 0 2 6 -9 13 -12 10 -14 16 -7 21 7
4 16 5 20 2 4 -2 14 -1 22 4 9 5 20 4 29 -3 11 -9 15 -9 18 0 3 9 10 10 22 3
10 -5 21 -7 23 -4 9 8 49 13 44 5 -3 -4 4 -12 14 -19 14 -9 21 -9 26 0 4 6 3
8 -4 4 -6 -3 -14 -1 -18 5 -5 9 0 10 16 6 13 -3 31 -1 39 6 12 10 14 9 7 -8
-7 -19 -6 -19 10 -3 15 15 19 15 40 1 13 -8 24 -11 25 -7 0 5 5 0 10 -11 8
-17 9 -16 6 8 -4 22 -2 25 9 16 8 -6 11 -16 7 -23 -3 -6 -2 -7 3 -3 5 5 10 13
10 18 3 22 5 23 14 9 13 -20 12 -41 -1 -37 -6 1 -14 -5 -16 -13 -4 -12 -3 -12
5 -2 5 8 13 14 18 13 5 0 8 12 7 27 -2 19 0 23 7 13 7 -13 11 -13 26 0 11 9
15 9 10 2 -4 -7 -2 -13 3 -13 6 0 11 6 11 13 0 8 3 8 9 -2 5 -8 25 -14 45 -14
29 0 33 -3 25 -14 -6 -7 -10 -13 -8 -14 34 -7 52 -3 56 12 3 11 8 17 12 15 4
-3 13 0 21 6 12 8 11 8 -5 3 -11 -3 -16 -3 -12 2 5 4 25 8 47 9 31 1 41 -4 51
-22 7 -13 14 -22 17 -19 3 2 -1 11 -7 19 -9 11 -9 16 0 22 7 4 9 3 6 -3 -4 -6
0 -14 9 -17 8 -3 12 -2 9 3 -3 5 -1 12 5 16 9 6 14 -7 11 -27 0 -5 4 -8 10 -8
6 0 9 7 6 15 -8 19 10 30 27 16 9 -7 16 -7 25 2 10 9 12 9 11 -3 -4 -27 0 -38
15 -43 8 -4 17 -1 21 5 4 6 3 9 -2 6 -5 -3 -15 0 -22 8 -8 9 -9 14 -2 14 6 0
9 4 6 8 -2 4 4 8 14 8 14 0 16 -3 8 -13 -8 -11 -7 -12 7 -7 13 5 16 4 11 -4
-4 -7 -2 -12 4 -12 7 0 10 7 7 15 -4 8 -2 17 3 20 9 6 14 -8 11 -27 0 -5 4 -8
9 -8 6 0 10 8 8 17 -3 20 38 28 49 10 3 -6 1 -7 -6 -3 -6 4 -11 4 -10 -1 3
-20 -2 -33 -12 -30 -6 1 -13 -4 -15 -11 -1 -7 0 -8 3 -2 2 5 9 8 13 5 5 -3 14
4 21 17 11 21 12 21 25 3 8 -10 14 -14 14 -8 0 7 -4 15 -10 18 -20 13 -9 21
30 21 22 0 40 -4 40 -9 0 -6 -3 -7 -7 -4 -3 4 -12 2 -20 -4 -9 -9 -13 -8 -13
0 0 6 -5 11 -11 11 -8 0 -9 -4 0 -13 6 -8 7 -18 3 -23 -4 -5 3 -1 14 9 21 18
22 18 38 -5 9 -12 16 -18 16 -12 0 5 -5 15 -12 22 -9 9 -9 12 1 12 7 0 10 4 7
8 -2 4 4 8 14 8 10 0 17 -3 14 -7 -2 -4 3 -9 11 -13 8 -3 14 -2 14 2 -3 19 2
26 10 13 11 -18 3 -43 -12 -34 -6 3 -7 1 -3 -6 4 -6 12 -8 18 -5 8 5 9 1 5
-10 -4 -10 -3 -15 4 -11 5 4 7 16 3 27 -5 16 -3 19 7 12 11 -6 11 -5 0 9 -8
10 -11 20 -7 24 3 3 6 1 6 -6 0 -8 6 -9 18 -3 9 5 34 8 55 7 20 -1 37 3 37 8
0 6 3 7 7 4 3 -4 12 -2 19 4 14 12 38 3 29 -11 -3 -5 -1 -11 4 -15 6 -3 8 5 5
19 -3 18 2 28 15 35 10 6 21 7 25 4 3 -3 6 1 6 11 0 9 7 19 15 22 8 4 12 10 9
15 -3 5 -1 9 5 9 24 0 50 127 55 270 1 36 5 70 9 76 3 6 4 14 0 18 -11 10 -9
106 1 106 6 0 5 5 -2 12 -7 7 -8 17 -1 30 7 12 6 18 -1 18 -6 0 -8 5 -4 11 12
19 11 209 -1 209 -7 0 -7 3 1 8 12 8 11 52 -1 72 -5 8 -4 11 2 7 7 -4 10 16 9
58 0 36 1 65 4 65 3 0 5 45 5 100 0 55 2 100 5 100 3 0 7 33 8 72 1 40 3 94 4
121 1 26 6 47 11 47 5 0 4 6 -2 14 -9 11 -9 16 0 21 8 6 7 10 -2 16 -8 5 -9 9
-4 9 14 0 15 70 1 70 -6 0 -5 4 3 9 9 6 12 21 9 45 -2 20 -1 36 2 36 3 0 5 27
5 60 -1 33 1 58 4 56 3 -2 7 21 9 52 6 97 7 107 15 120 5 7 3 12 -5 12 -8 0
-9 3 -3 8 6 4 11 18 11 32 1 22 6 75 20 195 7 59 11 82 18 93 4 7 3 12 -2 12
-5 0 -9 7 -9 15 0 8 4 12 8 9 4 -2 8 4 8 13 1 40 7 79 14 91 5 7 4 12 -3 12
-8 0 -8 6 0 20 6 11 10 32 9 47 0 15 2 39 6 53 3 14 8 41 11 60 3 19 7 49 10
65 3 17 5 45 6 63 0 17 4 32 8 32 11 0 1 68 -16 109 -8 20 -16 38 -16 41 -7
23 -71 80 -110 97 -36 16 -38 19 -38 65 0 32 4 48 13 48 7 0 8 3 2 8 -12 8
-13 32 -2 49 4 6 4 14 -1 17 -4 2 -9 22 -10 42 -2 21 -8 41 -13 45 -6 3 -10 9
-10 13 3 20 0 26 -9 21 -6 -3 -10 -1 -10 5 0 14 -16 31 -54 55 -28 18 -41 23
-76 29 -9 1 -20 4 -25 7 -15 8 -648 5 -661 -3 -6 -4 -14 -4 -18 0 -10 10 -166
10 -166 0 0 -5 -10 -4 -21 3 -17 8 -20 8 -14 -1 6 -10 3 -10 -11 -2 -11 6 -27
7 -41 1 -13 -5 -23 -5 -23 -1 0 9 -83 7 -98 -2 -7 -4 -12 -4 -12 1 0 10 -52 9
-68 -1 -7 -4 -12 -4 -12 1 0 4 -16 8 -35 8 -19 0 -35 -4 -35 -8 0 -4 -8 -3
-18 2 -13 7 -23 6 -30 -1 -7 -7 -12 -8 -12 -2 0 10 -81 11 -98 0 -7 -4 -12 -4
-12 1 0 10 -52 9 -68 -1 -7 -4 -12 -4 -12 1 0 4 -16 8 -35 8 -19 0 -35 -4 -35
-8 0 -4 -8 -3 -18 2 -13 7 -23 6 -30 -1 -7 -7 -12 -8 -12 -2 0 11 -81 10 -99
0 -6 -4 -11 -3 -11 1 0 9 -46 10 -54 2 -7 -7 -442 -2 -481 5 -19 4 -35 11 -35
16 0 6 -5 9 -12 8 -6 -2 -18 11 -27 27 -9 17 -18 32 -21 35 -3 3 -6 14 -8 25
-2 11 -6 27 -9 35 -3 8 -8 24 -10 34 -2 11 -10 27 -18 36 -8 9 -12 20 -8 23 3
4 1 7 -5 7 -7 0 -12 10 -12 22 0 12 -2 19 -6 16 -3 -3 -21 10 -41 28 -33 31
-46 38 -65 35 -5 0 -8 3 -8 7 0 9 -1620 11 -1666 1z m2290 -3860 c-4 -8 1 -9
17 -4 23 7 23 6 6 -11 -15 -16 -19 -17 -27 -4 -8 13 -5 30 6 30 3 0 2 -5 -2
-11z m936 1 c0 -5 -2 -10 -4 -10 -3 0 -8 5 -11 10 -3 6 -1 10 4 10 6 0 11 -4
11 -10z m225 0 c5 -8 12 -7 23 2 14 11 15 10 9 -5 -4 -10 -7 -22 -7 -26 0 -4
-9 -7 -19 -7 -14 0 -17 4 -10 12 12 15 -5 29 -23 18 -7 -4 -8 -3 -4 4 9 15 23
15 31 2z m-1850 -26 c-19 -14 -39 -9 -29 7 3 5 10 7 15 4 5 -4 9 -1 9 5 0 6 5
8 12 4 8 -5 6 -11 -7 -20z m-525 -238 c0 -3 -4 -8 -10 -11 -5 -3 -10 -1 -10 4
0 6 5 11 10 11 6 0 10 -2 10 -4z"/>
<path d="M2603 567 c-3 -5 -2 -11 1 -14 3 -4 6 -1 6 4 0 12 18 12 38 -1 8 -5
19 -3 25 3 9 9 8 11 -5 6 -10 -4 -18 -3 -18 3 0 13 -39 12 -47 -1z"/>
<path d="M2885 570 c-3 -5 -5 -10 -3 -11 32 -7 48 -7 54 3 4 7 3 8 -5 4 -6 -4
-18 -3 -26 4 -9 7 -15 8 -20 0z"/>
<path d="M3375 571 c6 -11 4 -13 -8 -8 -10 3 -17 2 -17 -3 0 -12 59 -9 67 3 3
6 1 7 -6 3 -6 -4 -19 -2 -28 6 -14 11 -16 11 -8 -1z"/>
<path d="M3473 567 c0 -8 12 -21 26 -27 22 -10 24 -9 11 2 -8 7 -19 19 -25 27
-10 11 -12 11 -12 -2z"/>
<path d="M3597 573 c-4 -3 -7 -11 -7 -17 0 -6 5 -5 12 2 6 6 9 14 7 17 -3 3
-9 2 -12 -2z"/>
<path d="M3953 565 c-15 -11 -13 -12 10 -12 14 0 28 5 30 12 3 6 -1 12 -9 12
-8 0 -22 -6 -31 -12z"/>
<path d="M4096 565 c4 -8 10 -15 15 -15 4 0 6 7 3 15 -4 8 -10 15 -15 15 -4 0
-6 -7 -3 -15z"/>
<path d="M4255 570 c3 -5 8 -10 11 -10 2 0 4 5 4 10 0 6 -5 10 -11 10 -5 0 -7
-4 -4 -10z"/>
<path d="M4515 570 c-8 -13 3 -30 18 -29 9 0 9 2 0 6 -7 2 -13 9 -13 15 0 6 7
7 16 4 8 -3 12 -2 9 4 -8 13 -22 13 -30 0z"/>
<path d="M590 566 c0 -2 7 -7 16 -10 8 -3 12 -2 9 4 -6 10 -25 14 -25 6z"/>
<path d="M674 558 c-4 -7 -3 -10 1 -5 5 4 19 0 33 -9 13 -9 21 -11 18 -5 -13
21 -44 32 -52 19z"/>
<path d="M770 560 c-9 -6 -10 -10 -3 -10 6 0 15 5 18 10 8 12 4 12 -15 0z"/>
<path d="M804 562 c4 -7 2 -12 -3 -12 -6 0 -11 -4 -11 -10 0 -15 17 -12 23 5
4 8 1 17 -5 21 -7 4 -8 3 -4 -4z"/>
<path d="M841 551 c-22 -17 -22 -18 -2 -16 11 1 23 4 27 7 3 4 13 4 22 1 18
-6 17 -5 -8 14 -12 9 -21 8 -39 -6z"/>
<path d="M2094 558 c6 -20 -4 -24 -21 -7 -8 8 -13 8 -17 0 -4 -6 -6 -11 -4
-12 48 -11 64 -4 46 21 -8 12 -9 12 -4 -2z"/>
<path d="M2116 558 c3 -4 16 -6 29 -4 13 3 26 -1 28 -8 6 -15 43 -14 58 1 8 8
7 13 -2 18 -7 5 -10 4 -5 -3 3 -6 2 -13 -4 -17 -5 -3 -10 -1 -10 6 0 8 -5 7
-17 -2 -14 -12 -16 -12 -11 1 4 12 -3 15 -33 16 -21 1 -36 -3 -33 -8z"/>
<path d="M2259 560 c-6 -4 1 -7 15 -7 14 0 26 3 26 7 0 3 -7 7 -15 7 -8 0 -19
-4 -26 -7z"/>
<path d="M2387 554 c7 -18 31 -25 39 -12 5 7 2 8 -6 3 -9 -6 -12 -4 -8 6 4 10
-1 15 -12 15 -10 0 -16 -6 -13 -12z"/>
<path d="M2440 561 c0 -5 11 -8 25 -8 30 0 28 6 -4 12 -11 2 -21 0 -21 -4z"/>
<path d="M2570 560 c0 -5 5 -10 11 -10 5 0 7 5 4 10 -3 6 -8 10 -11 10 -2 0
-4 -4 -4 -10z"/>
<path d="M2850 560 c0 -5 5 -10 11 -10 5 0 7 5 4 10 -3 6 -8 10 -11 10 -2 0
-4 -4 -4 -10z"/>
<path d="M2942 549 c-7 -12 -11 -24 -8 -27 3 -3 6 0 6 7 0 8 8 6 24 -4 22 -14
24 -15 22 -1 -1 9 -6 19 -11 23 -4 4 -5 2 -1 -4 4 -7 3 -13 -2 -13 -16 0 -22
13 -11 27 6 7 7 13 3 13 -5 0 -15 -9 -22 -21z"/>
<path d="M2985 560 c2 -4 18 -7 36 -8 17 0 29 1 27 4 -8 7 -68 12 -63 4z"/>
<path d="M3072 552 c-21 -16 -22 -20 -8 -31 21 -17 53 4 36 24 -5 6 -7 15 -3
18 13 13 -2 6 -25 -11z m20 -24 c-6 -6 -16 -7 -22 -3 -9 6 -9 9 1 16 17 10 34
0 21 -13z"/>
<path d="M3110 559 c0 -5 5 -7 10 -4 6 3 10 8 10 11 0 2 -4 4 -10 4 -5 0 -10
-5 -10 -11z"/>
<path d="M3151 558 c-1 -22 11 -29 29 -18 13 8 13 11 1 22 -9 8 -11 9 -7 1 3
-6 2 -14 -3 -17 -5 -4 -12 2 -14 11 -4 16 -5 16 -6 1z"/>
<path d="M3210 550 c9 -17 44 -20 57 -5 5 4 2 4 -6 0 -11 -6 -13 -4 -7 10 6
18 6 18 -15 -1 -17 -15 -21 -15 -17 -3 4 9 1 16 -7 16 -10 0 -11 -5 -5 -17z"/>
<path d="M3283 552 c10 -10 14 -22 10 -27 -5 -4 -2 -5 5 -1 11 6 10 12 -4 27
-9 10 -19 19 -22 19 -3 0 2 -8 11 -18z"/>
<path d="M3436 558 c3 -4 9 -8 15 -8 5 0 9 4 9 8 0 5 -7 9 -15 9 -8 0 -12 -4
-9 -9z"/>
<path d="M3775 560 c-3 -5 -1 -10 4 -10 6 0 11 5 11 10 0 6 -2 10 -4 10 -3 0
-8 -4 -11 -10z"/>
<path d="M4417 559 c7 -7 15 -10 18 -7 3 3 -2 9 -12 12 -14 6 -15 5 -6 -5z"/>
<path d="M630 550 c0 -6 7 -10 15 -10 8 0 15 2 15 4 0 2 -7 6 -15 10 -8 3 -15
1 -15 -4z"/>
<path d="M2360 549 c0 -5 -4 -8 -9 -4 -6 3 -15 -5 -21 -17 -10 -21 -10 -22 4
-5 8 10 18 18 22 17 5 -1 10 3 12 9 2 6 1 11 -2 11 -3 0 -6 -5 -6 -11z"/>
<path d="M3540 545 c-9 -11 -9 -15 -1 -15 6 0 11 4 11 10 0 5 6 7 14 4 8 -3
12 -12 9 -20 -3 -8 -3 -14 0 -14 3 0 7 7 11 15 8 22 -29 39 -44 20z"/>
<path d="M3615 550 c-4 -6 -5 -10 -3 -11 25 -6 38 -6 38 1 0 12 -29 20 -35 10z"/>
<path d="M3992 544 c-7 -8 -8 -14 -3 -14 10 0 25 19 20 25 -2 1 -10 -3 -17
-11z"/>
<path d="M580 540 c-9 -6 -10 -10 -3 -10 6 0 15 5 18 10 8 12 4 12 -15 0z"/>
<path d="M930 540 c0 -5 5 -10 11 -10 5 0 7 5 4 10 -3 6 -8 10 -11 10 -2 0 -4
-4 -4 -10z"/>
<path d="M2615 541 c-3 -5 0 -13 6 -17 8 -5 9 -3 4 6 -6 10 -4 12 9 7 10 -4
15 -3 11 3 -8 13 -22 13 -30 1z"/>
<path d="M2670 540 c-12 -7 -10 -9 7 -7 12 0 19 5 17 9 -6 10 -6 10 -24 -2z"/>
<path d="M2746 542 c-3 -4 4 -9 15 -9 23 -2 25 3 4 10 -8 4 -16 3 -19 -1z"/>
<path d="M2795 540 c-3 -6 1 -7 9 -4 18 7 21 14 7 14 -6 0 -13 -4 -16 -10z"/>
<path d="M3415 540 c-4 -6 -4 -14 -1 -17 3 -4 6 -1 6 6 0 8 7 7 23 -4 20 -13
24 -13 24 0 0 8 -4 12 -9 9 -5 -3 -15 -1 -23 6 -10 8 -15 8 -20 0z"/>
<path d="M3815 541 c-3 -5 0 -13 6 -17 7 -4 9 -3 5 4 -3 5 0 13 6 15 9 4 10 6
1 6 -6 1 -14 -3 -18 -8z"/>
<path d="M3916 533 c-6 -14 -5 -15 5 -6 7 7 10 15 7 18 -3 3 -9 -2 -12 -12z"/>
<path d="M4057 534 c5 -13 3 -15 -8 -9 -11 7 -12 6 -2 -7 7 -8 11 -18 8 -21
-3 -4 -2 -5 2 -2 11 9 13 44 3 50 -6 4 -7 -1 -3 -11z"/>
<path d="M4373 543 c4 -6 2 -13 -5 -15 -8 -3 -6 -6 4 -10 17 -7 19 15 3 29 -4
4 -5 3 -2 -4z"/>
<path d="M675 530 c3 -5 8 -10 11 -10 2 0 4 5 4 10 0 6 -5 10 -11 10 -5 0 -7
-4 -4 -10z"/>
<path d="M758 524 c12 -8 19 -20 16 -26 -4 -7 -2 -8 4 -4 7 4 12 9 12 11 0 9
-32 35 -43 35 -6 0 -1 -7 11 -16z"/>
<path d="M2123 530 c-27 -11 -30 -18 -5 -16 10 0 16 -5 14 -14 -2 -8 0 -12 4
-7 6 5 15 50 10 46 -1 0 -11 -4 -23 -9z"/>
<path d="M2446 531 c-18 -7 -18 -8 -2 -14 10 -4 14 -12 10 -19 -4 -7 -3 -10 1
-5 6 5 17 51 11 46 -1 0 -10 -4 -20 -8z"/>
<path d="M2835 530 c3 -5 8 -10 11 -10 2 0 4 5 4 10 0 6 -5 10 -11 10 -5 0 -7
-4 -4 -10z"/>
<path d="M2859 515 c-11 -18 -11 -19 4 -6 9 7 23 11 30 8 8 -3 14 0 14 7 0 19
-34 13 -48 -9z"/>
<path d="M3353 525 c0 -6 8 -11 17 -11 9 0 17 5 17 11 0 6 -8 11 -17 11 -9 0
-17 -5 -17 -11z"/>
<path d="M3786 523 c-6 -14 -5 -15 5 -6 7 7 10 15 7 18 -3 3 -9 -2 -12 -12z"/>
<path d="M4095 519 c1 -10 5 -22 10 -26 4 -5 5 -3 1 4 -3 6 1 16 10 21 15 8
14 10 -3 14 -14 4 -19 0 -18 -13z"/>
<path d="M649 517 c6 -8 7 -18 3 -22 -4 -5 -1 -5 6 -1 10 6 10 11 1 22 -6 8
-14 14 -16 14 -3 0 0 -6 6 -13z"/>
<path d="M2016 514 c-5 -14 -4 -15 8 -5 8 7 21 9 27 5 8 -4 9 -3 5 4 -10 17
-33 15 -40 -4z"/>
<path d="M2359 513 c-13 -16 -12 -17 4 -4 14 11 20 11 35 0 15 -13 16 -12 3 4
-7 9 -17 17 -21 17 -4 0 -14 -8 -21 -17z"/>
<path d="M2813 511 c0 -11 5 -18 9 -15 4 3 5 11 1 19 -7 21 -12 19 -10 -4z"/>
<path d="M3120 520 c-12 -7 -10 -9 8 -7 12 0 22 5 22 9 0 11 -12 10 -30 -2z"/>
<path d="M3197 515 c-4 -8 -3 -16 1 -19 4 -3 9 4 9 15 2 23 -3 25 -10 4z"/>
<path d="M3595 520 c-3 -5 -1 -10 4 -10 6 0 11 5 11 10 0 6 -2 10 -4 10 -3 0
-8 -4 -11 -10z"/>
<path d="M3730 519 c0 -5 5 -7 10 -4 6 3 10 8 10 11 0 2 -4 4 -10 4 -5 0 -10
-5 -10 -11z"/>
<path d="M3934 518 c-3 -5 0 -7 8 -6 7 2 12 -4 10 -12 -2 -8 0 -11 4 -7 14 13
12 34 -3 34 -7 0 -16 -4 -19 -9z"/>
<path d="M4190 520 c0 -5 9 -8 20 -7 21 1 18 10 -5 13 -8 1 -15 -2 -15 -6z"/>
<path d="M4330 519 c0 -5 5 -7 10 -4 6 3 10 8 10 11 0 2 -4 4 -10 4 -5 0 -10
-5 -10 -11z"/>
<path d="M4415 520 c-2 -3 5 -7 16 -7 10 -1 19 2 19 6 0 9 -29 10 -35 1z"/>
<path d="M2193 505 c0 -8 4 -12 9 -9 5 3 6 10 3 15 -9 13 -12 11 -12 -6z"/>
<path d="M2275 511 c-3 -5 -2 -12 3 -15 5 -3 9 1 9 9 0 17 -3 19 -12 6z"/>
<path d="M2753 505 c0 -8 4 -12 9 -9 5 3 6 10 3 15 -9 13 -12 11 -12 -6z"/>
<path d="M2230 496 c7 -7 13 -7 20 0 6 6 3 10 -10 10 -13 0 -16 -4 -10 -10z"/>
<path d="M2935 500 c3 -5 8 -10 11 -10 2 0 4 5 4 10 0 6 -5 10 -11 10 -5 0 -7
-4 -4 -10z"/>
<path d="M3010 499 c0 -5 5 -7 10 -4 6 3 10 8 10 11 0 2 -4 4 -10 4 -5 0 -10
-5 -10 -11z"/>
<path d="M3415 500 c3 -5 8 -10 11 -10 2 0 4 5 4 10 0 6 -5 10 -11 10 -5 0 -7
-4 -4 -10z"/>
<path d="M2313 485 c0 -8 4 -12 9 -9 5 3 6 10 3 15 -9 13 -12 11 -12 -6z"/>
<path d="M1966 478 c3 -5 10 -6 15 -3 13 9 11 12 -6 12 -8 0 -12 -4 -9 -9z"/>
<path d="M3646 482 c-3 -5 1 -9 9 -9 8 0 12 4 9 9 -3 4 -7 8 -9 8 -2 0 -6 -4
-9 -8z"/>
<path d="M3810 480 c0 -5 5 -10 11 -10 5 0 7 5 4 10 -3 6 -8 10 -11 10 -2 0
-4 -4 -4 -10z"/>
<path d="M1560 326 c0 -2 8 -10 18 -17 15 -13 16 -12 3 4 -13 16 -21 21 -21
13z"/>
</g>
</svg>
